<?xml version="1.0" standalone="no"?><!DOCTYPE svg PUBLIC "-//W3C//DTD SVG 1.1//EN" "http://www.w3.org/Graphics/SVG/1.1/DTD/svg11.dtd"><svg t="1628229468316" class="icon" viewBox="0 0 1024 1024" version="1.1" xmlns="http://www.w3.org/2000/svg" p-id="4858" width="16" height="16" xmlns:xlink="http://www.w3.org/1999/xlink"><defs><style type="text/css"></style></defs><path d="M489.244444 901.625679c-22.249877 0-42.477037-9.607901-56.636049-26.800988-110.743704-135.521975-297.339259-384.316049-297.339259-527.42321 0-191.652346 158.78321-347.401481 353.975308-347.401481s353.975309 155.749136 353.975309 347.401481c0 46.522469-18.710123 105.181235-57.141728 179.010371-6.573827 12.641975-21.744198 17.193086-33.880494 10.619259-12.641975-6.573827-17.193086-21.744198-10.619259-33.880494 34.386173-65.738272 51.579259-118.328889 51.579259-155.749136 0-163.84-136.027654-296.83358-303.407408-296.83358s-303.407407 132.99358-303.407407 296.83358c0 91.527901 106.698272 276.60642 285.708642 495.059754 4.045432 5.05679 10.619259 8.090864 17.698765 8.090864s13.147654-3.034074 17.698766-8.090864c26.295309-32.363457 52.590617-65.232593 77.368889-98.607408 8.596543-11.124938 24.272593-13.653333 35.397531-5.05679 11.124938 8.596543 13.147654 24.272593 5.05679 35.397531-25.283951 33.374815-51.579259 67.255309-78.380247 100.124444-14.664691 17.698765-35.397531 27.306667-57.647408 27.306667z" fill="#fefefe" p-id="4859" data-spm-anchor-id="a313x.7781069.0.i4" class="selected"></path><path d="M489.244444 424.77037c-63.715556 0-115.800494-51.07358-115.800493-113.777777s52.084938-113.777778 115.800493-113.777778 115.800494 51.07358 115.800494 113.777778-52.084938 113.777778-115.800494 113.777777z m0-176.987654c-35.90321 0-65.232593 28.318025-65.232592 63.209877s29.329383 63.209877 65.232592 63.209876c35.90321 0 65.232593-28.318025 65.232593-63.209876s-29.329383-63.209877-65.232593-63.209877zM817.935802 1024h-656.877037c-14.159012 0-25.283951-11.124938-25.28395-25.283951s11.124938-25.283951 25.28395-25.28395h656.877037c14.159012 0 25.283951 11.124938 25.283951 25.28395s-11.630617 25.283951-25.283951 25.283951z" fill="#fefefe" p-id="4860" data-spm-anchor-id="a313x.7781069.0.i8" class="selected"></path></svg>