<?xml version="1.0" standalone="no"?><!DOCTYPE svg PUBLIC "-//W3C//DTD SVG 1.1//EN" "http://www.w3.org/Graphics/SVG/1.1/DTD/svg11.dtd"><svg t="1627368203494" class="icon" viewBox="0 0 1024 1024" version="1.1" xmlns="http://www.w3.org/2000/svg" p-id="1368" width="6" height="6" xmlns:xlink="http://www.w3.org/1999/xlink"><defs><style type="text/css">@font-face { font-family: feedback-iconfont; src: url("//at.alicdn.com/t/font_1031158_1uhr8ri0pk5.eot?#iefix") format("embedded-opentype"), url("//at.alicdn.com/t/font_1031158_1uhr8ri0pk5.woff2") format("woff2"), url("//at.alicdn.com/t/font_1031158_1uhr8ri0pk5.woff") format("woff"), url("//at.alicdn.com/t/font_1031158_1uhr8ri0pk5.ttf") format("truetype"), url("//at.alicdn.com/t/font_1031158_1uhr8ri0pk5.svg#iconfont") format("svg"); }
</style></defs><path d="M800.9 377.5c-9.4 9.4-24.6 9.3-33.9-0.1L536.1 145.7v790.7c0 13.3-10.7 24-24 24s-24-10.7-24-24V146.1L257.6 377.2c-9.4 9.4-24.6 9.4-33.9 0-9.4-9.4-9.4-24.6 0-33.9L495.1 71c4.7-4.7 10.8-7.1 17-7.1 5.2 0 10.3 1.7 14.6 5 1.4 0.9 2.7 1.9 3.9 3.1L801 343.5c9.4 9.4 9.3 24.6-0.1 34z" p-id="1369" fill="#ffffff"></path></svg>